<?xml version="1.0" encoding="UTF-8" standalone="no"?>
<svg
   xmlns:dc="http://purl.org/dc/elements/1.1/"
   xmlns:cc="http://creativecommons.org/ns#"
   xmlns:rdf="http://www.w3.org/1999/02/22-rdf-syntax-ns#"
   xmlns:svg="http://www.w3.org/2000/svg"
   xmlns="http://www.w3.org/2000/svg"
   xmlns:sodipodi="http://sodipodi.sourceforge.net/DTD/sodipodi-0.dtd"
   xmlns:inkscape="http://www.inkscape.org/namespaces/inkscape"
   version="1.1"
   xml:space="preserve"
   enable-background="new 0 0 65 65"
   y="0px"
   x="0px"
   viewBox="0 0 65 65"
   id="svg3054"
   inkscape:version="0.48.4 r9939"
   width="100%"
   height="100%"
   sodipodi:docname="refresh-icon.svg"><defs
     id="defs3067" /><sodipodi:namedview
     pagecolor="#ffffff"
     bordercolor="#666666"
     borderopacity="1"
     objecttolerance="10"
     gridtolerance="10"
     guidetolerance="10"
     inkscape:pageopacity="0"
     inkscape:pageshadow="2"
     inkscape:window-width="733"
     inkscape:window-height="480"
     id="namedview3065"
     showgrid="false"
     inkscape:zoom="3.6307692"
     inkscape:cx="32.5"
     inkscape:cy="32.5"
     inkscape:window-x="47"
     inkscape:window-y="34"
     inkscape:window-maximized="0"
     inkscape:current-layer="svg3054" /><g
     id="Layer_3_copy_2"
     transform="matrix(0.63636364,0,0,0.60408361,11.818182,12.867481)"><g
       id="g3057"
       style="fill:#555753"><path
         d="m 32.5,4.999 c -5.405,0 -10.444,1.577 -14.699,4.282 l -5.75,-5.75 v 16.11 h 16.11 l -6.395,-6.395 c 3.18,-1.787 6.834,-2.82 10.734,-2.82 12.171,0 22.073,9.902 22.073,22.074 0,2.899 -0.577,5.664 -1.599,8.202 l 4.738,2.762 C 59.182,40.101 60,36.396 60,32.5 60,17.336 47.663,4.999 32.5,4.999 z"
         id="path3059"
         inkscape:connector-curvature="0" /><path
         d="m 43.227,51.746 c -3.179,1.786 -6.826,2.827 -10.726,2.827 -12.171,0 -22.073,-9.902 -22.073,-22.073 0,-2.739 0.524,-5.35 1.439,-7.771 L 7.136,21.878 C 5.761,25.149 5,28.736 5,32.5 5,47.664 17.336,60 32.5,60 c 5.406,0 10.434,-1.584 14.691,-4.289 l 5.758,5.759 V 45.358 H 36.838 l 6.389,6.388 z"
         id="path3061"
         inkscape:connector-curvature="0" /></g></g><metadata
     id="metadata3063"><rdf:RDF><cc:Work><dc:format>image/svg+xml</dc:format><dc:type
           rdf:resource="http://purl.org/dc/dcmitype/StillImage" /><cc:license
           rdf:resource="http://creativecommons.org/licenses/publicdomain/" /><dc:publisher><cc:Agent
             rdf:about="http://openclipart.org/"><dc:title>Openclipart</dc:title></cc:Agent></dc:publisher><dc:title>Refresh Icon</dc:title><dc:date>2013-08-22T04:53:13</dc:date><dc:description>A refresh icon</dc:description><dc:source>https://openclipart.org/detail/182094/refresh-icon-by-pianobrad-182094</dc:source><dc:creator><cc:Agent><dc:title>pianoBrad</dc:title></cc:Agent></dc:creator><dc:subject><rdf:Bag><rdf:li>design</rdf:li><rdf:li>icon</rdf:li><rdf:li>refresh</rdf:li><rdf:li>web</rdf:li></rdf:Bag></dc:subject></cc:Work><cc:License
         rdf:about="http://creativecommons.org/licenses/publicdomain/"><cc:permits
           rdf:resource="http://creativecommons.org/ns#Reproduction" /><cc:permits
           rdf:resource="http://creativecommons.org/ns#Distribution" /><cc:permits
           rdf:resource="http://creativecommons.org/ns#DerivativeWorks" /></cc:License></rdf:RDF></metadata></svg>